<?xml version="1.0" encoding="UTF-8"?>
<svg id="Camada_2" data-name="Camada 2" xmlns="http://www.w3.org/2000/svg" xmlns:xlink="http://www.w3.org/1999/xlink" viewBox="0 0 474.75 496.43">
  <defs>
    <style>
      .cls-1 {
        fill: #ff0068;
      }

      .cls-2 {
        fill: #00ff24;
      }

      .cls-3 {
        fill: #fff;
      }

      .cls-4 {
        fill: #a000f4;
      }

      .cls-5 {
        fill: #c7dce0;
      }

      .cls-6 {
        fill: #ba13e5;
      }

      .cls-7 {
        fill: url(#Gradiente_sem_nome_18);
      }

      .cls-8 {
        fill: #f70276;
      }
    </style>
    <linearGradient id="Gradiente_sem_nome_18" data-name="Gradiente sem nome 18" x1="0" y1="244.37" x2="474.75" y2="244.37" gradientUnits="userSpaceOnUse">
      <stop offset="0" stop-color="#ff0068"/>
      <stop offset="1" stop-color="#b414ef"/>
    </linearGradient>
  </defs>
  <g id="Camada_1-2" data-name="Camada 1">
    <g>
      <path class="cls-3" d="M433.82,239.77v164.27c0,.39-.02.78-.04,1.17,0,.25-.02.48-.05.71-.02.25-.04.51-.07.76-.02.07-.02.14-.04.21-.04.32-.09.64-.14.96,0,.04,0,.07-.02.09-.05.32-.12.64-.18.96-.02.02-.02.04-.02.05-.04.11-.05.23-.09.34-.09.34-.18.67-.28,1.01-.05.19-.12.39-.18.58-.07.19-.12.37-.19.57-.28.76-.6,1.49-.96,2.19-.16.32-.34.62-.5.94-.16.3-.35.6-.53.88h-.02s-.04.05-.05.09t-.02.04c-.11.14-.19.28-.28.41-.12.18-.25.35-.37.53-.27.35-.51.69-.8,1.03-.37.44-.76.85-1.15,1.26-.19.19-.37.39-.57.57-.18.18-.37.35-.55.51-.18.16-.35.32-.53.46-.16.12-.32.27-.48.39h-.02s-.04.02-.05.04c-.5.39-.99.74-1.5,1.08-.27.18-.55.34-.83.51-.27.16-.55.32-.83.46-.37.19-.74.39-1.13.57-.3.14-.62.27-.94.41-.23.07-.46.16-.71.25-.18.05-.35.12-.53.19-.18.07-.37.12-.55.18-.32.09-.62.19-.94.27-.39.11-.8.19-1.19.27-.34.07-.67.12-1.01.18-.25.04-.5.07-.76.09-.27.04-.51.05-.78.07-.51.04-1.03.05-1.54.05-.78,0-1.56-.05-2.34-.12-.04-.02-.09-.02-.12-.02-.32-.04-.65-.09-.97-.14-.05,0-.12,0-.19-.02-.07-.02-.16-.04-.23-.05-.32-.05-.62-.12-.94-.19-.39-.09-.76-.19-1.15-.3-.14-.05-.28-.09-.42-.14-.51-.18-1.04-.37-1.54-.55t-.04-.02c-.51-.21-1.01-.44-1.5-.69l-.02-.02c-.51-.25-1.01-.53-1.49-.83-.02-.02-.04-.04-.05-.04-.05-.04-.09-.05-.14-.09-.44-.27-.87-.57-1.29-.87t-.04-.05s-.05-.05-.09-.05c-.02-.02-.04-.02-.07-.04l-1.5-1.13c-.05-.04-.09-.07-.14-.11l-10.9-8.1-36.69-27.33c-5.31-3.96-11.04-7.13-17.04-9.45l-.02-.02c-2.14-.83-4.33-1.54-6.53-2.18-.81-.23-1.63-.44-2.44-.65-.58-.14-1.17-.28-1.75-.41-1.17-.27-2.35-.5-3.54-.69-.6-.11-1.19-.19-1.79-.28-.21-.04-.41-.07-.62-.09-1.38-.18-2.76-.32-4.14-.42-.46-.04-.92-.07-1.38-.11-1.27-.07-2.57-.12-3.84-.12-.99,0-1.96,0-2.94.04-8.32.28-16.63,2.02-24.57,5.2l-194.06,77.86c-4.07,1.63-8.21,2.39-12.22,2.39h-.07c-.57,0-1.15-.02-1.72-.05-.53-.02-1.06-.07-1.57-.12-.28-.04-.57-.07-.85-.11-.41-.05-.81-.11-1.22-.18-.11-.02-.23-.04-.35-.07-.41-.07-.81-.14-1.22-.25-1.49-.32-2.94-.76-4.35-1.29-.44-.16-.87-.34-1.31-.53-.57-.23-1.11-.5-1.66-.76-.8-.37-1.56-.8-2.32-1.22-.88-.53-1.75-1.11-2.6-1.73-.42-.3-.83-.6-1.24-.94-.83-.65-1.63-1.36-2.39-2.11-.74-.71-1.47-1.49-2.14-2.3-.34-.39-.67-.8-.99-1.22-.32-.42-.64-.85-.94-1.27-.3-.44-.6-.88-.88-1.33-.02,0-.02-.02-.02-.02-.09-.14-.18-.28-.25-.42-.25-.41-.5-.83-.73-1.27-.14-.23-.27-.48-.39-.73-.21-.42-.42-.87-.62-1.31-.09-.18-.18-.35-.25-.53-.42-.97-.81-1.98-1.13-3.03-.16-.53-.32-1.04-.46-1.59-.34-1.27-.6-2.58-.78-3.93-.19-1.47-.3-2.97-.3-4.49v-185.32c0-96.14,69.03-176.14,160.29-193.09,8.99-1.68,18.19-2.74,27.55-3.15,2.71-.12,5.38-.19,8.01-.19.73,0,1.43.02,2.12.02,5.87.02,11.68.34,17.41.92,3.38.34,6.72.74,10.05,1.26,94.58,14.29,167.45,97.25,167.45,196.64Z"/>
      <path class="cls-5" d="M433.82,239.77v164.27c0,.39-.02.78-.04,1.17,0,.25-.02.48-.05.71-.02.25-.04.51-.07.76-.02.07-.02.14-.04.21-.04.32-.09.64-.14.96,0,.04,0,.07-.02.09-.05.32-.12.64-.18.96-.02.02-.02.04-.02.05-.04.11-.05.23-.09.34-.09.34-.18.67-.28,1.01-.05.19-.12.39-.18.58-.07.19-.12.37-.19.57-.28.76-.6,1.49-.96,2.19-.16.32-.34.62-.5.94-.16.3-.35.6-.53.88-.02.04-.04.07-.07.09t-.02.04c-.11.14-.19.28-.28.41-.12.18-.25.35-.37.53-.27.35-.51.69-.8,1.03-.5.62-1.05,1.18-1.62,1.72-.03.03-.07.07-.1.1-.18.18-.37.35-.55.51-.18.16-.35.32-.53.46-.16.12-.32.27-.48.39,0,.02-.02.02-.02.02-.49.39-1,.74-1.52,1.07-.01,0-.02.02-.04.03-.27.18-.55.34-.83.51-.27.16-.55.32-.83.46-.37.19-.74.39-1.13.57-.3.14-.62.27-.94.41-.41.16-.81.32-1.24.44-.18.07-.37.12-.55.18-.32.09-.62.19-.94.27-.39.11-.8.19-1.19.27-.34.07-.67.12-1.01.18-.25.04-.5.07-.76.09-.27.04-.51.05-.78.07-.51.04-1.03.05-1.54.05,0,0-.01,0-.02,0-.77,0-1.54-.03-2.31-.12-.04-.02-.09-.02-.12-.02-.32-.04-.65-.09-.97-.14-.05,0-.12,0-.19-.02v-.02c-.07,0-.16-.02-.23-.04-.32-.05-.62-.12-.94-.19-.39-.09-.76-.19-1.15-.3-.14-.05-.28-.09-.42-.14-.51-.18-1.04-.37-1.54-.55t-.04-.02c-.51-.21-1.01-.44-1.5-.69l-.02-.02c-.51-.25-1.01-.53-1.49-.83-.02-.02-.04-.04-.05-.04-.05-.04-.09-.05-.14-.09-.44-.27-.87-.57-1.29-.87t-.04-.05s-.05-.05-.09-.05c-.02-.02-.04-.02-.07-.04-.5-.41-1.01-.8-1.5-1.13-.05-.04-.09-.07-.14-.11l-10.9-8.1-36.69-27.33c-5.31-3.96-11.04-7.13-17.04-9.45l-.02-.02c-19.58-18.89-34.53-44.07-35.42-71.26-.9-26.8,11.62-52,18.52-77.93,16.22-61.28-1.19-130.42-44.53-176.72-1.89-2-3.8-3.95-5.71-5.91,94.58,14.29,167.45,97.25,167.45,196.64Z"/>
      <path class="cls-7" d="M307.04,369.98c-.81,0-1.66.04-2.49.05.97-.04,1.95-.04,2.94-.04-.16,0-.3-.02-.44-.02ZM398.29,419.96l1.5,1.13s.05.02.07.04c-.53-.42-1.04-.81-1.57-1.17ZM399.95,421.18s.02.04.04.05c.42.3.85.6,1.29.87-.44-.3-.9-.6-1.33-.92ZM408.8,425c-.07,0-.16-.02-.23-.04.07.02.16.04.23.05.07.02.14.02.19.02-.07,0-.12-.02-.19-.04ZM417.5,424.7c.07,0,.12-.02.19-.04.32-.07.64-.16.94-.27-.37.11-.74.21-1.13.3ZM425.71,420.72v.02s.02,0,.02-.02h-.02ZM427.85,418.8c.12-.09.23-.21.34-.34.11-.09.19-.19.25-.28-.19.21-.39.42-.58.62ZM430.52,415.45s-.04.05-.05.09c.04-.02.05-.05.07-.09.09-.14.18-.28.27-.44-.09.14-.19.3-.28.44ZM412.73,78.48C372.89,34.34,318.77,6.86,260.31,1.13c-5.73-.58-11.57-.92-17.41-1.04-1.22-.05-2.42-.07-3.63-.07-.83,0-1.65-.02-2.49-.02-3.08,0-6.28.07-9.75.23-11.27.48-22.47,1.77-33.37,3.8C81.49,24.89,0,123.03,0,237.37v185.32c0,28.91,16.7,53.96,40.94,66.06v-251.38c0-96.14,69.03-176.14,160.29-193.09,8.99-1.68,18.19-2.74,27.55-3.15,2.71-.12,5.38-.19,8.01-.19.73,0,1.43.02,2.12.02,5.87.02,11.68.34,17.41.92,3.38.34,6.72.74,10.05,1.26,94.58,14.29,167.45,97.25,167.45,196.64v220.3c.18-.05.37-.05.55-.07.34-.05.65-.11.99-.19.74-.19,1.5-.42,2.25-.65,1.49-.46,2.94-.99,4.39-1.57,1.43-.58,2.85-1.22,4.25-1.93,1.38-.69,2.74-1.45,4.07-2.26.02-.02.04-.02.05-.04,14.84-11.36,24.4-29.24,24.4-49.31v-164.27c0-59.69-22.04-116.99-62.03-161.29ZM430.52,415.45s-.04.05-.05.09c.04-.02.05-.05.07-.09.09-.14.18-.28.27-.44-.09.14-.19.3-.28.44ZM427.85,418.8c.12-.09.23-.21.34-.34.11-.09.19-.19.25-.28-.19.21-.39.42-.58.62ZM425.71,420.72v.02s.02,0,.02-.02h-.02ZM417.5,424.7c.07,0,.12-.02.19-.04.32-.07.64-.16.94-.27-.37.11-.74.21-1.13.3ZM408.8,425c-.07,0-.16-.02-.23-.04.07.02.16.04.23.05.07.02.14.02.19.02-.07,0-.12-.02-.19-.04ZM399.95,421.18s.02.04.04.05c.42.3.85.6,1.29.87-.44-.3-.9-.6-1.33-.92ZM398.29,419.96l1.5,1.13s.05.02.07.04c-.53-.42-1.04-.81-1.57-1.17ZM307.04,369.98c-.81,0-1.66.04-2.49.05.97-.04,1.95-.04,2.94-.04-.16,0-.3-.02-.44-.02Z"/>
      <path class="cls-8" d="M315.76,412.16c-2.85-.83-5.79-1.24-8.72-1.24-.35,0-.73,0-1.08.04-3.66.11-7.31.88-10.74,2.28l-194.04,77.86c-8.83,3.54-18.08,5.33-27.49,5.33-11.75,0-22.88-2.76-32.75-7.68v-66.06c0,1.52.11,3.03.3,4.49,0,11.39,13.94,26.89,26.02,32.2,12.08,5.31,25.64,6.4,38.82,5.71,1.7-.09,3.36-.21,5.04-.35h.02c34.45-2.95,67.03-17,99.13-30.09,33.67-13.75,80.74-35.14,105.49-22.49Z"/>
      <g>
        <path class="cls-1" d="M154.07,170.41c19.23,0,34.88,15.65,34.88,34.88s-15.65,34.88-34.88,34.88-34.88-15.65-34.88-34.88,15.65-34.88,34.88-34.88M154.07,128.48c-42.42,0-76.81,34.39-76.81,76.81s34.39,76.81,76.81,76.81,76.81-34.39,76.81-76.81-34.39-76.81-76.81-76.81h0Z"/>
        <polygon class="cls-4" points="397.47 162.42 367.82 132.77 324.95 175.64 282.08 132.77 252.43 162.42 295.3 205.29 252.43 248.16 282.08 277.81 324.95 234.94 367.82 277.81 397.47 248.16 354.6 205.29 397.47 162.42"/>
      </g>
      <path class="cls-6" d="M436.35,402.66l-2.5,57.4c-9.34,1.42-19.41-.31-28.15-4.13-14.15-6.19-25.65-17.07-36.83-27.76-11.18-10.67-22.65-21.57-36.8-27.81-16.74-7.4-35.97-7.57-53.89-3.89-17.94,3.7-34.89,11.02-51.68,18.29-38.46,16.67-76.92,33.31-115.37,49.98h-.02c-1.68.14-3.34.27-5.04.35-13.18.69-26.73-.41-38.82-5.71-12.08-5.31-26.02-20.81-26.02-32.2.18,1.34.44,2.65.78,3.93.14.53.28,1.06.46,1.59.32,1.04.71,2.05,1.13,3.03.07.18.16.35.25.53.19.44.41.88.62,1.31.12.25.25.5.39.73.23.44.48.87.73,1.27.07.14.16.28.25.42,0,0,0,.02.02.02.28.46.57.9.88,1.33.28.44.6.87.94,1.27.32.42.65.83.99,1.22.67.81,1.4,1.59,2.14,2.3.76.74,1.56,1.45,2.39,2.11.41.34.81.64,1.24.94.85.62,1.72,1.2,2.6,1.73.76.42,1.52.85,2.32,1.22.55.27,1.1.53,1.66.76.44.19.87.37,1.31.53,1.42.53,2.87.97,4.35,1.29.41.11.81.18,1.22.25.12.04.25.05.35.07.41.07.81.12,1.22.18.28.04.57.07.85.11.51.05,1.04.11,1.57.12.57.04,1.15.05,1.72.05h.07c4.02,0,8.16-.76,12.22-2.39l194.06-77.86c7.94-3.18,16.26-4.92,24.57-5.2.97-.04,1.95-.04,2.94-.04,1.27,0,2.57.05,3.84.12.46.04.92.07,1.38.11,1.38.11,2.76.25,4.14.42.21.02.41.05.62.09.6.09,1.19.18,1.79.28,1.19.21,2.37.44,3.54.69.58.12,1.17.27,1.75.41.81.21,1.63.42,2.44.65,2.19.64,4.39,1.34,6.53,2.18l.02.02c6,2.32,11.73,5.48,17.04,9.45l36.69,27.33,10.9,8.1c.05.04.09.07.14.11l1.5,1.13s.05.02.07.04c.04,0,.05.04.09.05t.04.05c.42.3.85.6,1.29.87.05.04.09.05.14.09.02,0,.04.02.05.04.48.3.99.58,1.49.83l.02.02c.5.25,1.01.48,1.5.69t.04.02c.51.21,1.03.39,1.54.55.14.05.28.11.42.14.39.11.76.21,1.15.3.3.07.62.14.94.19.07.02.16.04.23.05.07.02.14.02.19.02.34.07.65.12.97.14.04,0,.09,0,.12.02,1.31.16,2.6.18,3.87.07.27,0,.53-.04.78-.07.27-.02.51-.05.76-.09.34-.04.67-.11,1.01-.18.32-.05.65-.12.99-.23.07,0,.12-.02.19-.04.32-.07.64-.16.94-.27.18-.05.37-.11.55-.18.42-.12.83-.28,1.24-.44.32-.14.64-.27.94-.41.39-.18.76-.35,1.13-.57.28-.14.57-.28.83-.46.32-.18.64-.37.94-.58.19-.11.39-.25.57-.39.12-.07.23-.14.34-.23.18-.12.35-.27.53-.41h.02s.02,0,.02-.02c.16-.12.32-.27.48-.39.18-.14.35-.28.53-.46.19-.16.37-.34.55-.51.04-.02.07-.05.11-.11.16-.14.32-.28.46-.46.12-.09.23-.21.34-.34.11-.09.19-.19.25-.28.21-.21.39-.42.57-.64.28-.34.55-.67.8-1.03.14-.18.27-.35.37-.53.09-.12.18-.27.28-.41t.02-.04s.05-.05.07-.09c.09-.14.18-.28.27-.44.09-.14.19-.3.27-.44.16-.32.34-.62.5-.94.37-.71.69-1.43.96-2.19.07-.19.12-.37.19-.57.07-.19.14-.39.18-.58.12-.34.21-.67.28-1.01.04-.11.05-.23.09-.34,0-.02,0-.04.02-.05.07-.32.12-.64.18-.96.02-.02.02-.05.02-.09.07-.32.11-.64.14-.96.02-.07.02-.14.04-.21.04-.25.05-.51.07-.76.04-.23.05-.46.05-.71.02-.39,2.57-2.16,2.57-2.55Z"/>
      <path class="cls-2" d="M450.3,453.38c-.71.57-1.43,1.1-2.18,1.61-4.39,3.08-9.18,5.61-14.31,7.48-.5.18-.99.35-1.49.51-6.25,2.14-12.93,3.27-19.9,3.27-13.39,0-26.2-4.26-37.06-12.35l-12.54-9.34-36.73-27.33c-3.11-2.32-6.55-4.02-10.33-5.08-24.75-12.65-71.83,8.74-105.49,22.49-32.09,13.09-64.68,27.14-99.13,30.09,38.44-16.67,76.91-33.31,115.37-49.98,16.79-7.27,33.74-14.6,51.68-18.29,17.92-3.68,37.15-3.5,53.89,3.89,14.15,6.25,25.62,17.14,36.8,27.81,11.18,10.69,22.68,21.57,36.83,27.76,8.74,3.82,18.77,5.54,28.11,4.12v.02c.18-.05.37-.05.55-.07.34-.05.65-.11.99-.19.74-.19,1.5-.42,2.25-.65,1.49-.46,2.94-.99,4.39-1.57,1.43-.58,2.85-1.22,4.25-1.93,1.38-.69,2.74-1.45,4.07-2.26Z"/>
    </g>
  </g>
</svg>