<?xml version="1.0" encoding="UTF-8"?>
<svg id="Camada_2" data-name="Camada 2" xmlns="http://www.w3.org/2000/svg" xmlns:xlink="http://www.w3.org/1999/xlink" viewBox="0 0 1367.85 260.26">
  <defs>
    <style>
      .cls-1 {
        fill: #000;
      }

      .cls-2 {
        fill: url(#Gradiente_sem_nome_18-3);
      }

      .cls-3 {
        fill: url(#Gradiente_sem_nome_18);
      }

      .cls-4 {
        fill: url(#Gradiente_sem_nome_18-2);
      }
    </style>
    <linearGradient id="Gradiente_sem_nome_18" data-name="Gradiente sem nome 18" x1="0" y1="130.14" x2="358.04" y2="130.14" gradientUnits="userSpaceOnUse">
      <stop offset="0" stop-color="#ff0068"/>
      <stop offset="1" stop-color="#b414ef"/>
    </linearGradient>
    <linearGradient id="Gradiente_sem_nome_18-2" data-name="Gradiente sem nome 18" x1="-58.41" y1="130.13" x2="657.3" y2="130.13" xlink:href="#Gradiente_sem_nome_18"/>
    <linearGradient id="Gradiente_sem_nome_18-3" data-name="Gradiente sem nome 18" x1="-90.95" y1="130.13" x2="624.76" y2="130.13" xlink:href="#Gradiente_sem_nome_18"/>
  </defs>
  <g id="Camada_1-2" data-name="Camada 1">
    <g>
      <g>
        <path class="cls-3" d="M65.1,65.06V.01H0v260.25h65.1v-65.07h-.05V65.06h.05Z"/>
        <path class="cls-4" d="M364.51,130.13c0,71.83-58.3,130.12-130.13,130.12s-130.13-58.3-130.13-130.12S162.55,0,234.38,0s130.13,58.3,130.13,130.13ZM234.38,65.06c-35.91,0-65.06,29.15-65.06,65.06s29.15,65.06,65.06,65.06,65.06-29.15,65.06-65.06-29.15-65.06-65.06-65.06Z"/>
        <path class="cls-2" d="M624.76,0l-92.72,130.13,92.72,130.12h-74.82l-55.3-77.61-55.3,77.61h-74.82l92.72-130.12L364.51,0h74.82l55.3,77.61L549.93,0h74.82Z"/>
      </g>
      <g>
        <path class="cls-1" d="M748.14,116.08v-30.58h-46.14v-26.9h-32.35v26.9h-22.19v30.58h22.19v45.9c0,35.74,21.7,50.69,46.59,50.69,11.75,0,23.79-3.36,31.69-7.04v-29.15c-10.19,3.6-18.79,6.1-26,6.1-12.9,0-19.94-7.7-19.94-22.4v-44.1h46.14Z"/>
        <path class="cls-1" d="M847.91,82.79c-17.65,0-31.24,8.15-38.9,24.44v-21.74h-32.34v124.47h32.34v-55.44c0-29.44,17.61-38.45,38.24-38.45,3.6,0,5.4.2,7.9.45v-33.29c-2.05-.2-4.3-.45-7.25-.45Z"/>
        <path class="cls-1" d="M934.8,82.79c-38,0-64.93,27.84-64.93,65.14s26.69,64.73,65.63,64.73c26.69,0,51.55-12.9,60.84-42.29h-33.45c-4.34,9.95-15.19,15.6-27.64,15.6-16.75,0-30.3-9.95-32.35-29.89h95.48c3.15-40.94-22.4-73.29-63.58-73.29ZM904.46,132.33c4.09-13.31,14.29-22.85,30.13-22.85s25.75,9.29,29.4,22.85h-59.53Z"/>
        <path class="cls-1" d="M1115.56,85.49v17.44c-8.6-12-21.7-20.14-39.35-20.14-31.89,0-56.54,26.49-56.54,64.94s24.16,64.94,56.79,64.94c17.4,0,30.3-7.7,38.85-19.45v16.75h32.39l.25-124.47h-32.39ZM1083.66,181.87c-17.89,0-31.44-13.55-31.44-34.15s13.35-34.15,31.44-34.15,31.89,13.8,31.89,34.15-13.8,34.15-31.89,34.15Z"/>
        <path class="cls-1" d="M1324.86,82.79c-18.3,0-32.59,8.84-41.64,23.54-6.8-15.19-19.9-23.54-37.79-23.54-16.3,0-28.05,6.8-36.85,19.24v-16.54h-32.59v124.47h32.59l-.25-65.39c0-19.69,9.05-30.99,26-30.99,15.6,0,21.54,8.8,21.54,24.65v71.73h32.34v-65.39c0-19.69,8.8-30.99,25.79-30.99,15.6,0,21.5,8.8,21.5,24.65v71.73h32.34v-78.73c0-30.13-16.5-48.44-42.99-48.44Z"/>
      </g>
    </g>
  </g>
</svg>